<?xml version="1.0" encoding="utf-8"?>
<!-- Generator: Adobe Illustrator 26.0.2, SVG Export Plug-In . SVG Version: 6.00 Build 0)  -->
<svg version="1.1" id="Layer_1" xmlns="http://www.w3.org/2000/svg" xmlns:xlink="http://www.w3.org/1999/xlink" x="0px" y="0px"
	 viewBox="0 0 1228 913.8" style="enable-background:new 0 0 1228 913.8;" xml:space="preserve">
<style type="text/css">
	.st0{fill:#171111;stroke:#000000;stroke-width:10;}
	.st1{fill:none;stroke:#000000;stroke-width:10;}
	.st2{fill:#2F2F2F;fill-opacity:0.25;stroke:#58A2D3;}
	.st3{fill:#1D1818;stroke:#59A5D7;}
	.st4{fill:#FFFFFF;}
	.st5{fill:#1D1818;stroke:#59A5D7;stroke-width:3;}
	.st6{fill:#6D7B84;}
	.st7{fill:#1D1818;stroke:#FFFFFF;stroke-width:4;}
	.st8{fill:none;stroke:#FFFFFF;stroke-width:4;}
	.st9{fill:#59A5D7;}
	.st10{fill:#696969;}
	.st11{fill:none;stroke:#59A5D7;stroke-width:15;stroke-linejoin:bevel;}
</style>
<path class="st0" d="M37.5,14.3h1154c11,0,20,9,20,20v768c0,11-9,20-20,20H37.5c-11,0-20-9-20-20v-768
	C17.5,23.2,26.5,14.3,37.5,14.3z"/>
<path class="st1" d="M23.5,819.3c188.5,61.1,688.6,146.7,1181,0"/>
<path class="st2" d="M65.5,339.8H147c0.5,0,0.9,0.2,1.2,0.6l19,23.5c0.4,0.6,0.4,1.3,0,1.9l-19,23.5c-0.3,0.4-0.7,0.6-1.2,0.6H65.5
	c-0.8,0-1.5-0.7-1.5-1.5v-47C64,340.4,64.7,339.8,65.5,339.8z"/>
<path class="st3" d="M65.5,429.8H147c0.4,0,0.9,0.2,1.2,0.6l18.9,23c0.5,0.6,0.5,1.3,0,1.9l-18.9,23c-0.3,0.4-0.7,0.6-1.2,0.6H65.5
	c-0.8,0-1.5-0.7-1.5-1.5v-46C64,430.4,64.7,429.8,65.5,429.8z"/>
<path class="st3" d="M65.5,618.8H147c0.4,0,0.9,0.2,1.2,0.6l18.9,23c0.5,0.6,0.5,1.3,0,1.9l-18.9,23c-0.3,0.4-0.7,0.6-1.2,0.6H65.5
	c-0.8,0-1.5-0.7-1.5-1.5v-46C64,619.4,64.7,618.8,65.5,618.8z"/>
<path class="st3" d="M65.5,527.8H147c0.4,0,0.9,0.2,1.2,0.6l18.9,23c0.5,0.6,0.5,1.3,0,1.9l-18.9,23c-0.3,0.4-0.7,0.6-1.2,0.6H65.5
	c-0.8,0-1.5-0.7-1.5-1.5v-46C64,528.4,64.7,527.8,65.5,527.8z"/>
<path class="st3" d="M1155.5,629.8h-76.6c-0.5,0-0.9,0.2-1.2,0.6l-17.9,24c-0.4,0.5-0.4,1.3,0,1.8l17.9,24c0.3,0.4,0.7,0.6,1.2,0.6
	h76.6c0.8,0,1.5-0.7,1.5-1.5v-48C1157,630.4,1156.4,629.8,1155.5,629.8z"/>
<path class="st3" d="M1155.5,352.8h-76.6c-0.5,0-0.9,0.2-1.2,0.6l-17.9,24c-0.4,0.5-0.4,1.3,0,1.8l17.9,24c0.3,0.4,0.7,0.6,1.2,0.6
	h76.6c0.8,0,1.5-0.7,1.5-1.5v-48C1157,353.4,1156.4,352.8,1155.5,352.8z"/>
<path class="st3" d="M1155.5,536.8H1079c-0.5,0-0.9,0.2-1.2,0.6l-17.9,24.5c-0.4,0.5-0.4,1.2,0,1.8l17.9,24.5
	c0.3,0.4,0.7,0.6,1.2,0.6h76.6c0.8,0,1.5-0.7,1.5-1.5v-49C1157,537.4,1156.4,536.8,1155.5,536.8z"/>
<path class="st3" d="M1155.5,448.8h-76.6c-0.5,0-0.9,0.2-1.2,0.6l-17.9,24c-0.4,0.5-0.4,1.3,0,1.8l17.9,24c0.3,0.4,0.7,0.6,1.2,0.6
	h76.6c0.8,0,1.5-0.7,1.5-1.5v-48C1157,449.4,1156.4,448.8,1155.5,448.8z"/>
<path class="st4" d="M460.9,335c0,2.4-0.8,4.3-2.4,5.5c-1.6,1.2-3.8,1.8-6.7,1.8h-8.1v-25.5h7.7c1.1,0,2.1,0.1,3.1,0.3
	c1,0.2,1.9,0.5,2.8,1c0.8,0.5,1.5,1.1,2,2c0.5,0.9,0.8,2,0.8,3.3c0,2.6-1.3,4.4-4,5.4C459.3,329.8,460.9,331.8,460.9,335z
	 M457.4,323.4c0-0.9-0.2-1.6-0.6-2.2c-0.4-0.6-0.9-1-1.4-1.3c-0.6-0.3-1.2-0.5-1.9-0.6c-0.7-0.1-1.4-0.2-2-0.2h-5v8.6h5
	c0.7,0,1.4-0.1,2.1-0.2c0.7-0.1,1.3-0.3,1.9-0.6c0.6-0.3,1-0.8,1.4-1.3C457.2,325,457.4,324.3,457.4,323.4z M458.2,335
	c0-1.8-0.6-3-1.7-3.8c-1.1-0.8-2.7-1.2-4.7-1.2h-5.4v10h5.4c2,0,3.6-0.4,4.7-1.2C457.7,337.9,458.2,336.6,458.2,335z M482.8,337.1
	c0,1.8-0.7,3.1-2,3.9c-1.3,0.9-3.1,1.3-5.6,1.3h-9.7v-18.2h9.1c0.9,0,1.8,0.1,2.6,0.2c0.9,0.1,1.6,0.4,2.3,0.7
	c0.7,0.3,1.2,0.8,1.7,1.4c0.4,0.6,0.6,1.4,0.6,2.4c0,0.9-0.2,1.7-0.7,2.4c-0.5,0.6-1.3,1.1-2.7,1.5c1.6,0.4,2.7,0.9,3.3,1.7
	C482.5,335.1,482.8,336,482.8,337.1z M479.2,329c0-0.6-0.2-1-0.4-1.3c-0.3-0.4-0.7-0.6-1.1-0.8c-0.4-0.2-0.9-0.3-1.4-0.4
	c-0.5-0.1-1.1-0.1-1.6-0.1h-6.4v5.2h6.4c0.5,0,1.1,0,1.6-0.1c0.5-0.1,1-0.2,1.5-0.4c0.4-0.2,0.8-0.5,1.1-0.8
	C479.1,330,479.2,329.5,479.2,329z M480.1,337c0-1.1-0.4-1.8-1.3-2.3c-0.9-0.5-2.1-0.7-3.6-0.7h-7v6.1h7c1.5,0,2.7-0.2,3.6-0.8
	C479.6,338.7,480.1,338,480.1,337z M489.1,334.1c0.2,1.9,0.9,3.5,2.1,4.6c1.2,1.1,2.8,1.7,4.7,1.7c1.4,0,2.6-0.3,3.7-0.8
	c1.1-0.6,1.9-1.2,2.4-2.1l1.9,1.3c-0.9,1.3-2,2.3-3.3,2.9c-1.3,0.7-2.8,1-4.7,1c-1.4,0-2.7-0.2-3.9-0.7c-1.2-0.5-2.2-1.1-3-2
	c-0.8-0.8-1.5-1.9-2-3c-0.5-1.2-0.7-2.4-0.7-3.9c0-1.4,0.2-2.6,0.6-3.8c0.4-1.2,1-2.2,1.8-3c0.8-0.9,1.8-1.5,2.9-2
	c1.1-0.5,2.4-0.7,3.8-0.7c1.5,0,2.9,0.3,4.1,0.8s2.1,1.2,2.9,2.2c0.8,0.9,1.4,2,1.7,3.3c0.4,1.3,0.6,2.7,0.6,4.2H489.1z M502,331.8
	c-0.3-2-1-3.5-2.2-4.4c-1.1-1-2.6-1.5-4.2-1.5c-0.9,0-1.7,0.2-2.4,0.4s-1.4,0.7-1.9,1.2c-0.6,0.5-1,1.2-1.4,1.9
	c-0.4,0.7-0.6,1.5-0.7,2.4H502z M508.3,340c0.6-0.1,1.2-0.5,1.8-1.1c0.6-0.6,1-1.4,1.5-2.4c0.4-1,0.7-2.2,1-3.7
	c0.3-1.5,0.4-3.1,0.4-5v-3.8h9.9V340h3.7v8.5h-2.4v-6.2h-13.4v6.2h-2.4V340z M515.6,327.8c0,1.5-0.1,2.9-0.3,4.2
	c-0.2,1.3-0.5,2.5-0.8,3.5c-0.3,1-0.7,1.9-1.2,2.7c-0.4,0.8-0.9,1.3-1.3,1.7h8.2v-13.6h-4.6V327.8z M531.1,324.1h2.7v14.7l9.8-14.7
	h3.8v18.2h-2.7v-15.4l-10.3,15.4h-3.3V324.1z M570.1,332.7h-2.3v-6.3h-5.5V340h4.1v2.3h-10.9V340h4.1v-13.6h-5.5v6.3h-2.3v-8.6h18.2
	V332.7z M576.5,334.1c0.2,1.9,0.9,3.5,2.1,4.6c1.2,1.1,2.8,1.7,4.7,1.7c1.4,0,2.6-0.3,3.7-0.8c1.1-0.6,1.9-1.2,2.4-2.1l1.9,1.3
	c-0.9,1.3-2,2.3-3.3,2.9c-1.3,0.7-2.8,1-4.7,1c-1.4,0-2.7-0.2-3.9-0.7c-1.2-0.5-2.2-1.1-3-2c-0.8-0.8-1.5-1.9-2-3
	c-0.5-1.2-0.7-2.4-0.7-3.9c0-1.4,0.2-2.6,0.6-3.8c0.4-1.2,1-2.2,1.8-3c0.8-0.9,1.8-1.5,2.9-2c1.1-0.5,2.4-0.7,3.8-0.7
	c1.5,0,2.9,0.3,4.1,0.8s2.1,1.2,2.9,2.2c0.8,0.9,1.4,2,1.7,3.3c0.4,1.3,0.6,2.7,0.6,4.2H576.5z M589.3,331.8c-0.3-2-1-3.5-2.2-4.4
	c-1.1-1-2.6-1.5-4.2-1.5c-0.9,0-1.7,0.2-2.4,0.4c-0.7,0.3-1.4,0.7-1.9,1.2s-1,1.2-1.4,1.9c-0.4,0.7-0.6,1.5-0.7,2.4H589.3z
	 M635.6,324.1c0,2.5-0.8,4.3-2.3,5.5c-1.5,1.2-3.7,1.8-6.5,1.8h-5.8v10.9h-2.7v-25.5h8.4c2.8,0,5,0.6,6.5,1.8
	C634.8,319.8,635.6,321.6,635.6,324.1z M632.9,324.1c0-1.8-0.6-3-1.7-3.8c-1.1-0.8-2.6-1.2-4.4-1.2h-5.8v10h5.8
	c1.8,0,3.3-0.4,4.4-1.2C632.4,327.1,632.9,325.8,632.9,324.1z M653.8,342.3h-10.9V340h4.1v-20.9h-4.1v-2.3h10.9v2.3h-4.1V340h4.1
	V342.3z M678.4,342.3H675l-10.3-21.6v21.6h-2.7v-25.5h3.8l9.8,20.6v-20.6h2.7V342.3z M701.2,334.1H683v-2.3h18.2V334.1z M723,342.3
	h-3.8l-7.4-8.2l-3.3,3v5.2h-2.7v-18.2h2.7v9.8l10.4-9.8h3.8l-9.1,8.4L723,342.3z M745.3,333.2c0,1.4-0.2,2.7-0.7,3.9
	c-0.4,1.2-1.1,2.2-1.9,3c-0.8,0.8-1.8,1.5-3,1.9c-1.2,0.5-2.5,0.7-3.9,0.7c-1.4,0-2.7-0.2-3.9-0.7c-1.2-0.5-2.2-1.1-3-1.9
	c-0.8-0.8-1.5-1.8-1.9-3c-0.4-1.2-0.7-2.4-0.7-3.9c0-1.4,0.2-2.7,0.7-3.8c0.5-1.2,1.1-2.2,1.9-3.1c0.8-0.8,1.9-1.5,3-2
	c1.2-0.5,2.5-0.7,3.9-0.7c1.4,0,2.8,0.2,3.9,0.7c1.2,0.5,2.2,1.1,3,2c0.8,0.8,1.5,1.8,1.9,3.1C745.1,330.6,745.3,331.8,745.3,333.2z
	 M742.6,333.2c0-1-0.2-2-0.5-2.9c-0.3-0.9-0.7-1.7-1.3-2.3c-0.6-0.7-1.3-1.2-2.2-1.6c-0.8-0.4-1.8-0.6-2.9-0.6c-1.1,0-2,0.2-2.9,0.6
	c-0.8,0.4-1.6,0.9-2.1,1.6c-0.6,0.7-1,1.4-1.3,2.3c-0.3,0.9-0.4,1.8-0.4,2.9s0.2,2,0.4,2.9c0.3,0.9,0.8,1.6,1.3,2.3
	c0.6,0.6,1.3,1.1,2.1,1.5c0.9,0.4,1.8,0.5,2.9,0.5c1.1,0,2-0.2,2.9-0.5c0.9-0.4,1.6-0.9,2.2-1.5c0.6-0.6,1-1.4,1.3-2.3
	C742.5,335.2,742.6,334.3,742.6,333.2z M748.5,340c0.6-0.1,1.2-0.5,1.8-1.1c0.6-0.6,1-1.4,1.5-2.4c0.4-1,0.7-2.2,1-3.7
	c0.3-1.5,0.4-3.1,0.4-5v-3.8h9.9V340h3.7v8.5h-2.4v-6.2h-13.4v6.2h-2.4V340z M755.7,327.8c0,1.5-0.1,2.9-0.3,4.2
	c-0.2,1.3-0.5,2.5-0.8,3.5c-0.3,1-0.7,1.9-1.2,2.7s-0.9,1.3-1.3,1.7h8.2v-13.6h-4.6V327.8z"/>
<path class="st5" d="M426.5,395.8h360c3.6,0,6.5,2.9,6.5,6.5v69c0,3.6-2.9,6.5-6.5,6.5h-360c-3.6,0-6.5-2.9-6.5-6.5v-69
	C420,398.7,422.9,395.8,426.5,395.8z"/>
<path class="st4" d="M560.8,429l-11.7,6.3l11.7,6.5l-1.9,3.2l-11.3-6.9l0.5,13.2h-4l0.5-13.2l-11.3,6.9l-1.9-3.2l11.7-6.5l-11.7-6.3
	l1.9-3.3l11.3,7l-0.5-13.3h4l-0.5,13.3l11.3-7L560.8,429z M599,429l-11.7,6.3l11.7,6.5l-1.9,3.2l-11.3-6.9l0.5,13.2h-4l0.5-13.2
	l-11.3,6.9l-1.9-3.2l11.7-6.5l-11.7-6.3l1.9-3.3l11.3,7l-0.5-13.3h4l-0.5,13.3l11.3-7L599,429z M637.2,429l-11.7,6.3l11.7,6.5
	l-1.9,3.2L624,438l0.5,13.2h-4L621,438l-11.3,6.9l-1.9-3.2l11.7-6.5l-11.7-6.3l1.9-3.3l11.3,7l-0.5-13.3h4l-0.5,13.3l11.3-7
	L637.2,429z"/>
<path class="st6" d="M675.4,429l-11.7,6.3l11.7,6.5l-1.9,3.2l-11.3-6.9l0.5,13.2h-4l0.5-13.2l-11.3,6.9l-1.9-3.2l11.7-6.5l-11.7-6.3
	l1.9-3.3l11.3,7l-0.5-13.3h4l-0.5,13.3l11.3-7L675.4,429z"/>
<path class="st7" d="M337.5,434.3h31c1.1,0,2,0.9,2,2v19c0,1.1-0.9,2-2,2h-31c-1.1,0-2-0.9-2-2v-19
	C335.5,435.2,336.4,434.3,337.5,434.3z"/>
<path class="st8" d="M343,434.3c-4.6-23.9,24.2-26.7,20.1,0"/>
<path class="st9" d="M241,619.3h132c10.8,0,19.5,8.7,19.5,19.5l0,0c0,10.8-8.7,19.5-19.5,19.5H241c-10.8,0-19.5-8.7-19.5-19.5l0,0
	C221.5,628,230.3,619.3,241,619.3z"/>
<path class="st9" d="M854,619.3h132c10.8,0,19.5,8.7,19.5,19.5l0,0c0,10.8-8.7,19.5-19.5,19.5H854c-10.8,0-19.5-8.7-19.5-19.5l0,0
	C834.5,628,843.3,619.3,854,619.3z"/>
<path class="st9" d="M222,629.3h151c0.3,0,0.5,0.2,0.5,0.5l0,0c0,0.3-0.2,0.5-0.5,0.5H222c-0.3,0-0.5-0.2-0.5-0.5l0,0
	C221.5,629.5,221.8,629.3,222,629.3z"/>
<path class="st10" d="M284.2,647.3h-2.5v-7h-5.1v7H274v-15.9h2.5v6.7h5.1v-6.7h2.5V647.3z M296.5,647.3l-1.1-3.8h-5.3l-1.1,3.8h-2.6
	l5-15.9h2.9l5,15.9H296.5z M290.8,641.2h3.9l-2-6.6L290.8,641.2z M311.9,642.9c0,0.7-0.1,1.3-0.4,1.9c-0.3,0.6-0.7,1-1.1,1.4
	c-0.5,0.4-1,0.7-1.6,0.9c-0.6,0.2-1.3,0.3-2,0.3c-0.8,0-1.5-0.1-2.1-0.3c-0.7-0.2-1.3-0.5-1.8-1c-0.5-0.4-0.9-1-1.2-1.6
	c-0.3-0.7-0.5-1.5-0.6-2.4l2.4-0.4c0.1,1,0.4,1.9,1,2.5c0.6,0.6,1.4,0.9,2.3,0.9c0.8,0,1.4-0.2,1.9-0.6c0.5-0.4,0.7-1,0.7-1.7
	c0-0.9-0.3-1.5-1-2c-0.6-0.4-1.6-0.7-2.8-0.7V638c0.5,0,1-0.1,1.5-0.2c0.4-0.1,0.8-0.3,1.1-0.5c0.3-0.2,0.5-0.5,0.7-0.8
	c0.2-0.3,0.2-0.7,0.2-1.1c0-0.3-0.1-0.6-0.2-0.8c-0.1-0.3-0.2-0.5-0.4-0.7c-0.2-0.2-0.4-0.3-0.7-0.4c-0.3-0.1-0.6-0.2-1-0.2
	c-0.5,0-0.9,0.1-1.3,0.3c-0.4,0.2-0.7,0.4-1,0.7c-0.3,0.3-0.5,0.7-0.6,1.1c-0.1,0.4-0.2,0.9-0.2,1.3h-2.3v-5.4h2.3v1.9
	c0.1-0.3,0.3-0.7,0.5-0.9c0.2-0.3,0.5-0.5,0.8-0.7c0.3-0.2,0.6-0.3,1-0.4c0.4-0.1,0.7-0.1,1.1-0.1c0.6,0,1.2,0.1,1.8,0.3
	c0.6,0.2,1,0.5,1.5,0.9c0.4,0.4,0.8,0.8,1,1.4c0.3,0.5,0.4,1.1,0.4,1.8c0,0.5-0.1,0.9-0.2,1.4c-0.1,0.4-0.3,0.8-0.6,1.1
	c-0.3,0.3-0.6,0.6-1,0.8c-0.4,0.2-0.8,0.3-1.3,0.3c0.5,0.1,1,0.2,1.5,0.4c0.4,0.2,0.8,0.5,1.1,0.9c0.3,0.4,0.5,0.8,0.7,1.2
	C311.9,642,311.9,642.5,311.9,642.9z M323.8,647.3l-1.1-3.8h-5.3l-1.1,3.8h-2.6l5-15.9h2.9l5,15.9H323.8z M318.1,641.2h3.9l-2-6.6
	L318.1,641.2z M328,645c0.5-0.4,0.8-0.7,1.1-1.1c0.3-0.4,0.5-0.9,0.7-1.5c0.2-0.7,0.3-1.6,0.4-2.7c0.1-1.1,0.1-2.6,0.1-4.4v-3.9h7.3
	V645h1.9v6.2h-2.3v-3.9h-6.8v3.9H328V645z M332.8,635.3c0,1.4,0,2.7,0,3.7c0,1-0.1,1.9-0.2,2.7c-0.1,0.8-0.3,1.4-0.6,1.9
	c-0.3,0.5-0.6,1-1.1,1.4h4.2v-11.4h-2.2V635.3z"/>
<path class="st4" d="M885.9,645c0.5-0.4,0.8-0.7,1.1-1.1c0.3-0.4,0.5-0.9,0.7-1.5c0.2-0.7,0.3-1.6,0.3-2.7c0.1-1.1,0.1-2.6,0.1-4.4
	v-3.9h7.2V645h1.9v6.2H895v-3.9h-6.8v3.9h-2.3V645z M890.7,635.3c0,1.4,0,2.7,0,3.7c0,1-0.1,1.9-0.2,2.7s-0.3,1.4-0.6,1.9
	c-0.2,0.5-0.6,1-1.1,1.4h4.2v-11.4h-2.2V635.3z M909,647.3l-1.2-3.8h-5.3l-1.1,3.8h-2.7l5-15.9h2.9l5,15.9H909z M903.3,641.2h3.9
	l-2-6.6L903.3,641.2z M924,631.3v15.9h-2.5v-13.6h-4.3v10.3c0,0.7-0.1,1.2-0.3,1.7c-0.2,0.5-0.5,0.8-0.8,1.1
	c-0.3,0.3-0.7,0.5-1.1,0.6c-0.4,0.1-0.9,0.2-1.4,0.2c-0.7,0-1.2-0.1-1.5-0.3l0.3-2.2c0.1,0.1,0.2,0.1,0.4,0.1c0.1,0,0.3,0.1,0.6,0.1
	c0.9,0,1.3-0.5,1.3-1.4v-12.6H924z M937.6,647.3h-10.2v-15.9h10.2v2.3H930v4.4h6v2.3h-6v4.7h7.7V647.3z M951.3,647.3h-10.2v-15.9
	h10.2v2.3h-7.7v4.4h6v2.3h-6v4.7h7.7V647.3z"/>
<path class="st11" d="M246.5,110.8h734c9.7,0,17.5,7.8,17.5,17.5v593c0,9.7-7.8,17.5-17.5,17.5h-734c-9.7,0-17.5-7.8-17.5-17.5v-593
	C229,118.6,236.9,110.8,246.5,110.8z"/>
</svg>
