<svg width="1305" height="485" viewBox="0 0 1305 485" fill="none" xmlns="http://www.w3.org/2000/svg">
<g filter="url(#filter0_d_95_50)">
<rect x="6.5" y="2.5" width="1266" height="388" rx="42.5" stroke="#59A5D7" stroke-width="5" shape-rendering="crispEdges"/>
</g>
<rect x="272" y="119" width="66" height="132" rx="10" fill="black"/>
<rect x="861" y="119" width="69" height="132" rx="10" fill="black"/>
<g filter="url(#filter1_d_95_50)">
<path d="M226.869 183.569H218.739V170.869H211.005V211.826H220.102V220H192.855V211.826H201.908V170.869H194.086V183.569H186V162.651H226.869V183.569ZM273.935 220H264.838V194.907H246.381V220H237.284V162.651H246.381V186.689H264.838V162.651H273.935V220ZM372.196 220H361.649L344.643 178.428V220H335.546V162.651H346.972L363.1 202.158V162.651H372.196V220ZM423.217 220H412.582L397.553 193.281L393.773 197.764V220H384.677V162.651H393.773V185.151L411.615 162.651H423.305L403.31 186.426L423.217 220ZM471.161 204.268C471.161 206.904 470.707 209.263 469.799 211.343C468.92 213.394 467.704 215.137 466.151 216.572C464.628 218.008 462.797 219.106 460.658 219.868C458.549 220.63 456.293 221.011 453.891 221.011C451.195 221.011 448.764 220.527 446.596 219.561C444.428 218.594 442.567 216.997 441.015 214.771V220H432.841V201.279H441.015C441.015 203.154 441.337 204.81 441.981 206.245C442.655 207.681 443.534 208.896 444.618 209.893C445.702 210.859 446.962 211.606 448.397 212.134C449.833 212.632 451.356 212.881 452.968 212.881C455.692 212.881 457.89 212.251 459.56 210.991C461.229 209.731 462.064 207.725 462.064 204.971C462.064 203.535 461.801 202.305 461.273 201.279C460.775 200.254 460.043 199.346 459.076 198.555C458.139 197.734 456.981 197.031 455.604 196.445C454.228 195.83 452.66 195.186 450.902 194.512C448.822 193.809 446.742 193.018 444.662 192.139C442.582 191.26 440.722 190.176 439.081 188.887C437.44 187.598 436.107 186.016 435.082 184.141C434.057 182.236 433.544 179.849 433.544 176.978C433.544 174.458 433.998 172.261 434.906 170.386C435.844 168.481 437.074 166.885 438.598 165.596C440.15 164.307 441.938 163.34 443.959 162.695C446.01 162.021 448.178 161.685 450.463 161.685C453.1 161.685 455.355 162.241 457.23 163.354C459.135 164.468 460.6 165.947 461.625 167.793V162.651H469.799V180.493H461.625C461.625 177.124 460.731 174.502 458.944 172.627C457.187 170.723 454.813 169.771 451.825 169.771C449.188 169.771 446.991 170.386 445.233 171.616C443.505 172.847 442.641 174.575 442.641 176.802C442.641 177.944 442.86 178.926 443.3 179.746C443.769 180.537 444.428 181.27 445.277 181.943C446.156 182.588 447.255 183.203 448.573 183.789C449.892 184.346 451.415 184.961 453.144 185.635C455.312 186.396 457.465 187.261 459.604 188.228C461.742 189.194 463.661 190.381 465.36 191.787C467.06 193.193 468.451 194.907 469.535 196.929C470.619 198.921 471.161 201.367 471.161 204.268ZM568.72 170.869H541.166V186.689H562.655V194.907H541.166V220H532.069V162.651H568.72V170.869ZM577.597 191.304C577.597 187.466 578.007 183.76 578.827 180.186C579.647 176.611 580.922 173.462 582.65 170.737C584.379 168.013 586.635 165.83 589.418 164.189C592.23 162.52 595.614 161.685 599.569 161.685C603.524 161.685 606.894 162.52 609.677 164.189C612.489 165.83 614.774 168.013 616.532 170.737C618.29 173.462 619.564 176.611 620.355 180.186C621.146 183.76 621.542 187.466 621.542 191.304C621.542 195.142 621.146 198.848 620.355 202.422C619.564 205.967 618.305 209.131 616.576 211.914C614.848 214.668 612.577 216.88 609.765 218.55C606.981 220.19 603.583 221.011 599.569 221.011C595.556 221.011 592.143 220.19 589.33 218.55C586.547 216.88 584.276 214.668 582.519 211.914C580.79 209.131 579.545 205.967 578.783 202.422C577.992 198.848 577.597 195.142 577.597 191.304ZM586.693 191.304C586.693 193.882 586.884 196.46 587.265 199.038C587.675 201.616 588.349 203.931 589.286 205.981C590.253 208.003 591.557 209.644 593.197 210.903C594.867 212.163 596.991 212.793 599.569 212.793C602.147 212.793 604.257 212.163 605.897 210.903C607.567 209.644 608.871 208.003 609.809 205.981C610.775 203.931 611.449 201.616 611.83 199.038C612.24 196.46 612.445 193.882 612.445 191.304C612.445 188.726 612.24 186.162 611.83 183.613C611.449 181.064 610.775 178.765 609.809 176.714C608.871 174.663 607.553 173.008 605.854 171.748C604.184 170.488 602.089 169.858 599.569 169.858C595.38 169.858 592.187 171.748 589.989 175.527C587.792 179.307 586.693 184.565 586.693 191.304ZM669.926 220H658.412L643.559 196.797H639.428V220H630.331V162.651H649.228C655.526 162.651 660.419 164.102 663.905 167.002C667.392 169.873 669.135 174.136 669.135 179.79C669.135 182.31 668.739 184.536 667.948 186.47C667.187 188.374 666.088 190.015 664.652 191.392C663.246 192.769 661.591 193.867 659.687 194.688C657.812 195.479 655.775 196.021 653.578 196.313L669.926 220ZM660.038 179.658C660.038 176.729 659.071 174.531 657.138 173.066C655.233 171.602 652.597 170.869 649.228 170.869H639.428V188.579H649.228C652.597 188.579 655.233 187.847 657.138 186.382C659.071 184.917 660.038 182.676 660.038 179.658ZM770.165 162.651L761.288 220H751.928L746.874 195.259L741.908 220H732.548L723.671 162.651H733.119L738.393 201.279L742.567 179.043H751.269L755.312 201.279L760.717 162.651H770.165ZM809.672 220L805.541 206.333H786.557L782.514 220H772.978L790.863 162.651H801.322L819.208 220H809.672ZM788.974 198.291H803.124L796.093 174.648L788.974 198.291ZM865.57 183.569H857.44V170.869H849.706V211.826H858.803V220H831.557V211.826H840.609V170.869H832.787V183.569H824.701V162.651H865.57V183.569ZM961.767 220H952.67V194.907H934.213V220H925.116V162.651H934.213V186.689H952.67V162.651H961.767V220ZM1006.46 220H978.949V211.826H988.002V170.869H978.949V162.651H1006.46V170.869H997.099V211.826H1006.46V220ZM1060.03 220H1049.48L1032.47 178.428V220H1023.38V162.651H1034.8L1050.93 202.158V162.651H1060.03V220ZM1113.55 191.479C1113.55 195.376 1113.16 199.097 1112.37 202.642C1111.61 206.187 1110.33 209.321 1108.54 212.046C1106.79 214.771 1104.5 216.953 1101.69 218.594C1098.91 220.205 1095.51 221.011 1091.49 221.011C1087.48 221.011 1084.08 220.19 1081.3 218.55C1078.51 216.88 1076.23 214.683 1074.44 211.958C1072.68 209.233 1071.41 206.084 1070.62 202.51C1069.86 198.936 1069.48 195.229 1069.48 191.392C1069.48 187.554 1069.86 183.848 1070.62 180.273C1071.41 176.699 1072.68 173.535 1074.44 170.781C1076.23 168.027 1078.51 165.83 1081.3 164.189C1084.08 162.52 1087.48 161.685 1091.49 161.685C1092.64 161.685 1093.81 161.846 1095.01 162.168C1096.21 162.49 1097.35 162.988 1098.44 163.662C1099.52 164.307 1100.47 165.112 1101.29 166.079C1102.14 167.046 1102.74 168.159 1103.09 169.419V162.651H1111.31V182.998H1103.09C1103.09 181.211 1102.82 179.526 1102.26 177.944C1101.7 176.333 1100.91 174.927 1099.89 173.726C1098.86 172.524 1097.63 171.587 1096.2 170.913C1094.76 170.21 1093.19 169.858 1091.49 169.858C1088.92 169.858 1086.81 170.503 1085.17 171.792C1083.52 173.081 1082.21 174.751 1081.21 176.802C1080.21 178.853 1079.51 181.152 1079.1 183.701C1078.72 186.25 1078.53 188.813 1078.53 191.392C1078.53 193.97 1078.72 196.533 1079.1 199.082C1079.51 201.631 1080.2 203.931 1081.17 205.981C1082.13 208.003 1083.45 209.644 1085.12 210.903C1086.79 212.163 1088.92 212.793 1091.49 212.793C1095.21 212.793 1098.22 211.606 1100.5 209.233C1102.79 206.86 1104.35 203.184 1105.2 198.203H1093.12V190.029H1113.55V191.479ZM1145.94 162.651L1143.7 203.608H1136.23L1133.99 162.651H1145.94ZM1145.5 220H1134.43V208.926H1145.5V220Z" fill="black"/>
<path d="M318.363 220L314.232 206.333H295.248L291.205 220H281.669L299.555 162.651H310.014L327.899 220H318.363ZM297.665 198.291H311.815L304.784 174.648L297.665 198.291ZM915.668 202.466C914.965 205.278 914.027 207.827 912.855 210.112C911.684 212.397 910.248 214.346 908.549 215.957C906.879 217.568 904.916 218.813 902.66 219.692C900.434 220.571 897.87 221.011 894.97 221.011C890.956 221.011 887.558 220.19 884.774 218.55C881.991 216.88 879.706 214.668 877.919 211.914C876.161 209.131 874.887 205.967 874.096 202.422C873.334 198.848 872.953 195.142 872.953 191.304C872.953 187.466 873.334 183.76 874.096 180.186C874.887 176.611 876.146 173.462 877.875 170.737C879.633 168.013 881.859 165.83 884.555 164.189C887.25 162.52 890.546 161.685 894.442 161.685C895.702 161.685 896.977 161.846 898.266 162.168C899.555 162.49 900.756 162.988 901.869 163.662C902.982 164.307 903.949 165.112 904.77 166.079C905.619 167.046 906.22 168.159 906.571 169.419V162.651H914.789V184.36H906.571C906.571 182.573 906.352 180.815 905.912 179.087C905.473 177.329 904.77 175.776 903.803 174.429C902.836 173.081 901.62 171.982 900.155 171.133C898.69 170.283 896.962 169.858 894.97 169.858C892.392 169.858 890.282 170.488 888.642 171.748C887.001 173.008 885.683 174.663 884.687 176.714C883.69 178.765 882.987 181.064 882.577 183.613C882.196 186.162 882.006 188.726 882.006 191.304C882.006 193.882 882.196 196.46 882.577 199.038C882.987 201.616 883.676 203.931 884.643 205.981C885.609 208.003 886.928 209.644 888.598 210.903C890.268 212.163 892.392 212.793 894.97 212.793C898.69 212.793 901.547 211.606 903.539 209.233C905.561 206.86 907.172 203.667 908.373 199.653L915.668 202.466Z" fill="#EBEBEB"/>
</g>
<path d="M647.33 473.973C647.33 474.272 647.302 474.54 647.247 474.778C647.197 475.016 647.103 475.257 646.964 475.5C646.832 475.744 646.654 476.001 646.433 476.272C646.212 476.544 645.932 476.854 645.595 477.202L641.818 481.029H646.392V478.904H647.363V482H640.324V480.996L644.541 476.712C644.756 476.497 644.961 476.281 645.155 476.065C645.354 475.849 645.531 475.631 645.686 475.409C645.841 475.188 645.963 474.958 646.051 474.72C646.14 474.482 646.184 474.233 646.184 473.973C646.184 473.309 645.963 472.808 645.52 472.471C645.083 472.128 644.541 471.956 643.893 471.956C642.986 471.956 642.299 472.208 641.834 472.711C641.37 473.215 641.137 473.943 641.137 474.895H640.083C640.083 473.672 640.41 472.714 641.062 472.022C641.715 471.331 642.659 470.985 643.893 470.985C644.358 470.985 644.795 471.054 645.205 471.192C645.62 471.325 645.985 471.519 646.3 471.773C646.621 472.028 646.873 472.341 647.056 472.711C647.238 473.077 647.33 473.497 647.33 473.973ZM650.144 476.596C650.144 477.399 650.24 478.151 650.434 478.854L655.506 473.5C655.24 473.002 654.911 472.62 654.518 472.354C654.131 472.089 653.677 471.956 653.157 471.956C652.183 471.956 651.436 472.371 650.916 473.201C650.401 474.026 650.144 475.157 650.144 476.596ZM650.824 479.775C651.372 480.749 652.15 481.236 653.157 481.236C654.109 481.236 654.847 480.824 655.373 480C655.899 479.169 656.162 478.035 656.162 476.596C656.162 476.198 656.137 475.821 656.087 475.467C656.037 475.108 655.968 474.764 655.879 474.438L650.824 479.775ZM649.006 476.596C649.006 475.871 649.084 475.171 649.239 474.496C649.394 473.821 649.634 473.223 649.961 472.703C650.287 472.183 650.714 471.768 651.239 471.458C651.771 471.143 652.41 470.985 653.157 470.985C653.904 470.985 654.54 471.143 655.066 471.458C655.597 471.768 656.029 472.183 656.361 472.703C656.693 473.223 656.934 473.821 657.083 474.496C657.232 475.171 657.307 475.871 657.307 476.596C657.307 477.321 657.232 478.021 657.083 478.696C656.934 479.371 656.696 479.966 656.369 480.481C656.043 480.996 655.614 481.411 655.083 481.726C654.557 482.036 653.915 482.191 653.157 482.191C652.399 482.191 651.754 482.036 651.223 481.726C650.697 481.411 650.268 480.996 649.936 480.481C649.61 479.966 649.374 479.371 649.23 478.696C649.081 478.021 649.006 477.321 649.006 476.596ZM665.89 473.973C665.89 474.272 665.862 474.54 665.807 474.778C665.757 475.016 665.663 475.257 665.525 475.5C665.392 475.744 665.215 476.001 664.994 476.272C664.772 476.544 664.493 476.854 664.155 477.202L660.378 481.029H664.952V478.904H665.923V482H658.884V480.996L663.101 476.712C663.317 476.497 663.522 476.281 663.715 476.065C663.915 475.849 664.092 475.631 664.247 475.409C664.402 475.188 664.523 474.958 664.612 474.72C664.7 474.482 664.745 474.233 664.745 473.973C664.745 473.309 664.523 472.808 664.081 472.471C663.643 472.128 663.101 471.956 662.454 471.956C661.546 471.956 660.86 472.208 660.395 472.711C659.93 473.215 659.698 473.943 659.698 474.895H658.644C658.644 473.672 658.97 472.714 659.623 472.022C660.276 471.331 661.22 470.985 662.454 470.985C662.918 470.985 663.356 471.054 663.765 471.192C664.18 471.325 664.545 471.519 664.861 471.773C665.182 472.028 665.434 472.341 665.616 472.711C665.799 473.077 665.89 473.497 665.89 473.973ZM675.17 473.973C675.17 474.272 675.143 474.54 675.087 474.778C675.038 475.016 674.944 475.257 674.805 475.5C674.672 475.744 674.495 476.001 674.274 476.272C674.053 476.544 673.773 476.854 673.436 477.202L669.659 481.029H674.232V478.904H675.204V482H668.165V480.996L672.381 476.712C672.597 476.497 672.802 476.281 672.996 476.065C673.195 475.849 673.372 475.631 673.527 475.409C673.682 475.188 673.804 474.958 673.892 474.72C673.981 474.482 674.025 474.233 674.025 473.973C674.025 473.309 673.804 472.808 673.361 472.471C672.924 472.128 672.381 471.956 671.734 471.956C670.826 471.956 670.14 472.208 669.675 472.711C669.21 473.215 668.978 473.943 668.978 474.895H667.924C667.924 473.672 668.25 472.714 668.903 472.022C669.556 471.331 670.5 470.985 671.734 470.985C672.199 470.985 672.636 471.054 673.045 471.192C673.46 471.325 673.826 471.519 674.141 471.773C674.462 472.028 674.714 472.341 674.896 472.711C675.079 473.077 675.17 473.497 675.17 473.973Z" fill="black"/>
<line x1="863.5" y1="162" x2="863.5" y2="184" stroke="white" stroke-width="5"/>
<line x1="927.5" y1="163" x2="927.5" y2="220" stroke="white" stroke-width="5"/>
<line x1="336.5" y1="162" x2="336.5" y2="220" stroke="white" stroke-width="3"/>
<line x1="273" y1="162" x2="273" y2="220" stroke="white" stroke-width="2"/>
<line x1="272.5" y1="160.998" x2="272.506" y2="162.698" stroke="black"/>
<line x1="335.5" y1="160.998" x2="335.506" y2="162.698" stroke="black"/>
<line x1="865.5" y1="160.998" x2="865.506" y2="162.698" stroke="black"/>
<line x1="863.5" y1="160.998" x2="863.506" y2="162.698" stroke="black"/>
<line x1="864.5" y1="160.998" x2="864.506" y2="162.698" stroke="black"/>
<line x1="862.5" y1="160.998" x2="862.506" y2="162.698" stroke="black"/>
<line x1="930.5" y1="161.998" x2="930.503" y2="162.998" stroke="#E2E2E2"/>
<line x1="931.5" y1="161.998" x2="931.503" y2="162.998" stroke="#E2E2E2"/>
<line x1="934.5" y1="161.998" x2="934.503" y2="162.998" stroke="#E2E2E2"/>
<line x1="933.5" y1="161.998" x2="933.503" y2="162.998" stroke="#E2E2E2"/>
<line x1="932.5" y1="161.998" x2="932.503" y2="162.998" stroke="#E2E2E2"/>
<line x1="861.5" y1="160.998" x2="861.506" y2="162.698" stroke="black"/>
<line x1="337.5" y1="160.998" x2="337.506" y2="162.698" stroke="black"/>
<line x1="336.5" y1="160.998" x2="336.506" y2="162.698" stroke="black"/>
<line x1="273.5" y1="160.998" x2="273.506" y2="162.698" stroke="black"/>
<defs>
<filter id="filter0_d_95_50" x="0" y="0" width="1279" height="401" filterUnits="userSpaceOnUse" color-interpolation-filters="sRGB">
<feFlood flood-opacity="0" result="BackgroundImageFix"/>
<feColorMatrix in="SourceAlpha" type="matrix" values="0 0 0 0 0 0 0 0 0 0 0 0 0 0 0 0 0 0 127 0" result="hardAlpha"/>
<feOffset dy="4"/>
<feGaussianBlur stdDeviation="2"/>
<feComposite in2="hardAlpha" operator="out"/>
<feColorMatrix type="matrix" values="0 0 0 0 0 0 0 0 0 0 0 0 0 0 0 0 0 0 0.25 0"/>
<feBlend mode="normal" in2="BackgroundImageFix" result="effect1_dropShadow_95_50"/>
<feBlend mode="normal" in="SourceGraphic" in2="effect1_dropShadow_95_50" result="shape"/>
</filter>
<filter id="filter1_d_95_50" x="86" y="65.6846" width="1159.94" height="259.326" filterUnits="userSpaceOnUse" color-interpolation-filters="sRGB">
<feFlood flood-opacity="0" result="BackgroundImageFix"/>
<feColorMatrix in="SourceAlpha" type="matrix" values="0 0 0 0 0 0 0 0 0 0 0 0 0 0 0 0 0 0 127 0" result="hardAlpha"/>
<feOffset dy="4"/>
<feGaussianBlur stdDeviation="50"/>
<feComposite in2="hardAlpha" operator="out"/>
<feColorMatrix type="matrix" values="0 0 0 0 0 0 0 0 0 0 0 0 0 0 0 0 0 0 0.25 0"/>
<feBlend mode="normal" in2="BackgroundImageFix" result="effect1_dropShadow_95_50"/>
<feBlend mode="normal" in="SourceGraphic" in2="effect1_dropShadow_95_50" result="shape"/>
</filter>
</defs>
</svg>
