<svg width="1571" height="793" viewBox="0 0 1571 793" fill="none" xmlns="http://www.w3.org/2000/svg">
<path d="M894.555 341.477H681.859V669.016H806.664V778H439.867V669.016H560.57V341.477H439.867V231.906H560.57C560.57 156.906 583.617 99.6797 629.711 60.2266C675.805 20.3828 738.109 0.460938 816.625 0.460938C828.344 0.460938 840.844 1.04688 854.125 2.21875C867.406 3.39062 880.883 4.75781 894.555 6.32031V112.961C871.117 110.617 849.828 109.445 830.688 109.445C799.438 109.445 774.242 111.789 755.102 116.477C735.961 120.773 720.922 128 709.984 138.156C699.438 147.922 692.016 160.617 687.719 176.242C683.812 191.867 681.859 210.422 681.859 231.906H894.555V341.477Z" fill="black"/>
<path d="M1151.05 341.477H938.359V669.016H1063.16V778H696.367V669.016H817.07V341.477H696.367V231.906H817.07C817.07 156.906 840.117 99.6797 886.211 60.2266C932.305 20.3828 994.609 0.460938 1073.12 0.460938C1084.84 0.460938 1097.34 1.04688 1110.62 2.21875C1123.91 3.39062 1137.38 4.75781 1151.05 6.32031V112.961C1127.62 110.617 1106.33 109.445 1087.19 109.445C1055.94 109.445 1030.74 111.789 1011.6 116.477C992.461 120.773 977.422 128 966.484 138.156C955.938 147.922 948.516 160.617 944.219 176.242C940.312 191.867 938.359 210.422 938.359 231.906H1151.05V341.477Z" fill="black"/>
<path d="M1151.05 341.477H938.359V669.016H1063.16V778H696.367V669.016H817.07V341.477H696.367V231.906H817.07C817.07 156.906 840.117 99.6797 886.211 60.2266C932.305 20.3828 994.609 0.460938 1073.12 0.460938C1084.84 0.460938 1097.34 1.04688 1110.62 2.21875C1123.91 3.39062 1137.38 4.75781 1151.05 6.32031V112.961C1127.62 110.617 1106.33 109.445 1087.19 109.445C1055.94 109.445 1030.74 111.789 1011.6 116.477C992.461 120.773 977.422 128 966.484 138.156C955.938 147.922 948.516 160.617 944.219 176.242C940.312 191.867 938.359 210.422 938.359 231.906H1151.05V341.477Z" fill="black"/>
<path d="M1278.84 161.008H1131.18V13.3516H1278.84V161.008ZM1390.16 778H1023.37V669.016H1144.07V341.477H1023.37V231.906H1265.36V669.016H1390.16V778Z" fill="black"/>
</svg>
